<svg id="visual" viewBox="0 0 900 600" width="900" height="600" xmlns="http://www.w3.org/2000/svg" xmlns:xlink="http://www.w3.org/1999/xlink" version="1.1"><path d="M0 251L21.5 248C43 245 86 239 128.8 243.5C171.7 248 214.3 263 257.2 280C300 297 343 316 385.8 320.7C428.7 325.3 471.3 315.7 514.2 293.5C557 271.3 600 236.7 642.8 228.3C685.7 220 728.3 238 771.2 241C814 244 857 232 878.5 226L900 220L900 601L878.5 601C857 601 814 601 771.2 601C728.3 601 685.7 601 642.8 601C600 601 557 601 514.2 601C471.3 601 428.7 601 385.8 601C343 601 300 601 257.2 601C214.3 601 171.7 601 128.8 601C86 601 43 601 21.5 601L0 601Z" fill="#215971"></path><path d="M0 304L21.5 310.2C43 316.3 86 328.7 128.8 320.2C171.7 311.7 214.3 282.3 257.2 275C300 267.7 343 282.3 385.8 281.8C428.7 281.3 471.3 265.7 514.2 255.3C557 245 600 240 642.8 245.8C685.7 251.7 728.3 268.3 771.2 270.3C814 272.3 857 259.7 878.5 253.3L900 247L900 601L878.5 601C857 601 814 601 771.2 601C728.3 601 685.7 601 642.8 601C600 601 557 601 514.2 601C471.3 601 428.7 601 385.8 601C343 601 300 601 257.2 601C214.3 601 171.7 601 128.8 601C86 601 43 601 21.5 601L0 601Z" fill="#1f546d"></path><path d="M0 352L21.5 349.5C43 347 86 342 128.8 344.2C171.7 346.3 214.3 355.7 257.2 348.3C300 341 343 317 385.8 322C428.7 327 471.3 361 514.2 365.5C557 370 600 345 642.8 336.8C685.7 328.7 728.3 337.3 771.2 339.2C814 341 857 336 878.5 333.5L900 331L900 601L878.5 601C857 601 814 601 771.2 601C728.3 601 685.7 601 642.8 601C600 601 557 601 514.2 601C471.3 601 428.7 601 385.8 601C343 601 300 601 257.2 601C214.3 601 171.7 601 128.8 601C86 601 43 601 21.5 601L0 601Z" fill="#1c4f68"></path><path d="M0 329L21.5 332.3C43 335.7 86 342.3 128.8 346.8C171.7 351.3 214.3 353.7 257.2 359.8C300 366 343 376 385.8 378.7C428.7 381.3 471.3 376.7 514.2 367.2C557 357.7 600 343.3 642.8 348.3C685.7 353.3 728.3 377.7 771.2 386.3C814 395 857 388 878.5 384.5L900 381L900 601L878.5 601C857 601 814 601 771.2 601C728.3 601 685.7 601 642.8 601C600 601 557 601 514.2 601C471.3 601 428.7 601 385.8 601C343 601 300 601 257.2 601C214.3 601 171.7 601 128.8 601C86 601 43 601 21.5 601L0 601Z" fill="#1a4b64"></path><path d="M0 453L21.5 440C43 427 86 401 128.8 392.8C171.7 384.7 214.3 394.3 257.2 394.2C300 394 343 384 385.8 389.7C428.7 395.3 471.3 416.7 514.2 424.8C557 433 600 428 642.8 421.3C685.7 414.7 728.3 406.3 771.2 408.2C814 410 857 422 878.5 428L900 434L900 601L878.5 601C857 601 814 601 771.2 601C728.3 601 685.7 601 642.8 601C600 601 557 601 514.2 601C471.3 601 428.7 601 385.8 601C343 601 300 601 257.2 601C214.3 601 171.7 601 128.8 601C86 601 43 601 21.5 601L0 601Z" fill="#18465f"></path><path d="M0 433L21.5 434C43 435 86 437 128.8 443.8C171.7 450.7 214.3 462.3 257.2 465.5C300 468.7 343 463.3 385.8 459C428.7 454.7 471.3 451.3 514.2 443.7C557 436 600 424 642.8 423.2C685.7 422.3 728.3 432.7 771.2 439.8C814 447 857 451 878.5 453L900 455L900 601L878.5 601C857 601 814 601 771.2 601C728.3 601 685.7 601 642.8 601C600 601 557 601 514.2 601C471.3 601 428.7 601 385.8 601C343 601 300 601 257.2 601C214.3 601 171.7 601 128.8 601C86 601 43 601 21.5 601L0 601Z" fill="#16415b"></path><path d="M0 473L21.5 471.7C43 470.3 86 467.7 128.8 467.7C171.7 467.7 214.3 470.3 257.2 467.5C300 464.7 343 456.3 385.8 457.3C428.7 458.3 471.3 468.7 514.2 471.8C557 475 600 471 642.8 476.8C685.7 482.7 728.3 498.3 771.2 496.2C814 494 857 474 878.5 464L900 454L900 601L878.5 601C857 601 814 601 771.2 601C728.3 601 685.7 601 642.8 601C600 601 557 601 514.2 601C471.3 601 428.7 601 385.8 601C343 601 300 601 257.2 601C214.3 601 171.7 601 128.8 601C86 601 43 601 21.5 601L0 601Z" fill="#143c56"></path><path d="M0 542L21.5 536.5C43 531 86 520 128.8 517C171.7 514 214.3 519 257.2 518.2C300 517.3 343 510.7 385.8 510.3C428.7 510 471.3 516 514.2 520.5C557 525 600 528 642.8 521.8C685.7 515.7 728.3 500.3 771.2 502.7C814 505 857 525 878.5 535L900 545L900 601L878.5 601C857 601 814 601 771.2 601C728.3 601 685.7 601 642.8 601C600 601 557 601 514.2 601C471.3 601 428.7 601 385.8 601C343 601 300 601 257.2 601C214.3 601 171.7 601 128.8 601C86 601 43 601 21.5 601L0 601Z" fill="#133852"></path><path d="M0 540L21.5 544C43 548 86 556 128.8 555.5C171.7 555 214.3 546 257.2 545.7C300 545.3 343 553.7 385.8 558.7C428.7 563.7 471.3 565.3 514.2 564.7C557 564 600 561 642.8 555C685.7 549 728.3 540 771.2 540C814 540 857 549 878.5 553.5L900 558L900 601L878.5 601C857 601 814 601 771.2 601C728.3 601 685.7 601 642.8 601C600 601 557 601 514.2 601C471.3 601 428.7 601 385.8 601C343 601 300 601 257.2 601C214.3 601 171.7 601 128.8 601C86 601 43 601 21.5 601L0 601Z" fill="#11334d"></path></svg>