<svg id="visual" viewBox="0 0 900 600" width="900" height="600" xmlns="http://www.w3.org/2000/svg" xmlns:xlink="http://www.w3.org/1999/xlink" version="1.1"><rect x="0" y="0" width="900" height="600" fill="#001220"></rect><defs><linearGradient id="grad1_0" x1="33.3%" y1="0%" x2="100%" y2="100%"><stop offset="20%" stop-color="#378696" stop-opacity="1"></stop><stop offset="80%" stop-color="#378696" stop-opacity="1"></stop></linearGradient></defs><defs><linearGradient id="grad1_1" x1="33.3%" y1="0%" x2="100%" y2="100%"><stop offset="20%" stop-color="#378696" stop-opacity="1"></stop><stop offset="80%" stop-color="#2c7183" stop-opacity="1"></stop></linearGradient></defs><defs><linearGradient id="grad1_2" x1="33.3%" y1="0%" x2="100%" y2="100%"><stop offset="20%" stop-color="#235c6f" stop-opacity="1"></stop><stop offset="80%" stop-color="#2c7183" stop-opacity="1"></stop></linearGradient></defs><defs><linearGradient id="grad1_3" x1="33.3%" y1="0%" x2="100%" y2="100%"><stop offset="20%" stop-color="#235c6f" stop-opacity="1"></stop><stop offset="80%" stop-color="#1a485b" stop-opacity="1"></stop></linearGradient></defs><defs><linearGradient id="grad1_4" x1="33.3%" y1="0%" x2="100%" y2="100%"><stop offset="20%" stop-color="#123547" stop-opacity="1"></stop><stop offset="80%" stop-color="#1a485b" stop-opacity="1"></stop></linearGradient></defs><defs><linearGradient id="grad1_5" x1="33.3%" y1="0%" x2="100%" y2="100%"><stop offset="20%" stop-color="#123547" stop-opacity="1"></stop><stop offset="80%" stop-color="#0a2333" stop-opacity="1"></stop></linearGradient></defs><defs><linearGradient id="grad1_6" x1="33.3%" y1="0%" x2="100%" y2="100%"><stop offset="20%" stop-color="#001220" stop-opacity="1"></stop><stop offset="80%" stop-color="#0a2333" stop-opacity="1"></stop></linearGradient></defs><defs><linearGradient id="grad2_0" x1="0%" y1="0%" x2="66.7%" y2="100%"><stop offset="20%" stop-color="#378696" stop-opacity="1"></stop><stop offset="80%" stop-color="#378696" stop-opacity="1"></stop></linearGradient></defs><defs><linearGradient id="grad2_1" x1="0%" y1="0%" x2="66.7%" y2="100%"><stop offset="20%" stop-color="#2c7183" stop-opacity="1"></stop><stop offset="80%" stop-color="#378696" stop-opacity="1"></stop></linearGradient></defs><defs><linearGradient id="grad2_2" x1="0%" y1="0%" x2="66.7%" y2="100%"><stop offset="20%" stop-color="#2c7183" stop-opacity="1"></stop><stop offset="80%" stop-color="#235c6f" stop-opacity="1"></stop></linearGradient></defs><defs><linearGradient id="grad2_3" x1="0%" y1="0%" x2="66.7%" y2="100%"><stop offset="20%" stop-color="#1a485b" stop-opacity="1"></stop><stop offset="80%" stop-color="#235c6f" stop-opacity="1"></stop></linearGradient></defs><defs><linearGradient id="grad2_4" x1="0%" y1="0%" x2="66.7%" y2="100%"><stop offset="20%" stop-color="#1a485b" stop-opacity="1"></stop><stop offset="80%" stop-color="#123547" stop-opacity="1"></stop></linearGradient></defs><defs><linearGradient id="grad2_5" x1="0%" y1="0%" x2="66.7%" y2="100%"><stop offset="20%" stop-color="#0a2333" stop-opacity="1"></stop><stop offset="80%" stop-color="#123547" stop-opacity="1"></stop></linearGradient></defs><defs><linearGradient id="grad2_6" x1="0%" y1="0%" x2="66.7%" y2="100%"><stop offset="20%" stop-color="#0a2333" stop-opacity="1"></stop><stop offset="80%" stop-color="#001220" stop-opacity="1"></stop></linearGradient></defs><g transform="translate(900, 0)"><path d="M0 486.7C-57.9 491.3 -115.7 495.8 -150.4 462.9C-185.1 430.1 -196.7 359.9 -238.6 328.5C-280.6 297 -352.9 304.4 -378.6 275.1C-404.3 245.8 -383.5 179.9 -393.7 127.9C-404 76 -445.4 38 -486.7 0L0 0Z" fill="#061b29"></path><path d="M0 417.2C-49.6 421.1 -99.2 424.9 -128.9 396.8C-158.7 368.6 -168.6 308.5 -204.5 281.5C-240.5 254.6 -302.5 260.9 -324.5 235.8C-346.6 210.7 -328.7 154.2 -337.5 109.7C-346.3 65.1 -381.7 32.6 -417.2 0L0 0Z" fill="#0e2c3d"></path><path d="M0 347.7C-41.3 350.9 -82.6 354.1 -107.4 330.7C-132.2 307.2 -140.5 257.1 -170.5 234.6C-200.4 212.2 -252.1 217.4 -270.4 196.5C-288.8 175.6 -273.9 128.5 -281.2 91.4C-288.6 54.3 -318.1 27.1 -347.7 0L0 0Z" fill="#163e51"></path><path d="M0 278.1C-33.1 280.7 -66.1 283.3 -86 264.5C-105.8 245.8 -112.4 205.7 -136.4 187.7C-160.3 169.7 -201.7 173.9 -216.4 157.2C-231.1 140.5 -219.1 102.8 -225 73.1C-230.9 43.4 -254.5 21.7 -278.1 0L0 0Z" fill="#1f5265"></path><path d="M0 208.6C-24.8 210.5 -49.6 212.5 -64.5 198.4C-79.3 184.3 -84.3 154.2 -102.3 140.8C-120.2 127.3 -151.2 130.4 -162.3 117.9C-173.3 105.3 -164.3 77.1 -168.7 54.8C-173.1 32.6 -190.9 16.3 -208.6 0L0 0Z" fill="#286679"></path><path d="M0 139.1C-16.5 140.4 -33.1 141.6 -43 132.3C-52.9 122.9 -56.2 102.8 -68.2 93.8C-80.2 84.9 -100.8 87 -108.2 78.6C-115.5 70.2 -109.6 51.4 -112.5 36.6C-115.4 21.7 -127.2 10.9 -139.1 0L0 0Z" fill="#327b8c"></path><path d="M0 69.5C-8.3 70.2 -16.5 70.8 -21.5 66.1C-26.4 61.4 -28.1 51.4 -34.1 46.9C-40.1 42.4 -50.4 43.5 -54.1 39.3C-57.8 35.1 -54.8 25.7 -56.2 18.3C-57.7 10.9 -63.6 5.4 -69.5 0L0 0Z" fill="#378696"></path></g><g transform="translate(0, 600)"><path d="M0 -486.7C58.6 -492.5 117.2 -498.2 150.4 -462.9C183.6 -427.6 191.3 -351.3 233.4 -321.2C275.4 -291 351.6 -307 389.9 -283.3C428.3 -259.6 428.6 -196.3 438.4 -142.5C448.2 -88.6 467.5 -44.3 486.7 0L0 0Z" fill="#061b29"></path><path d="M0 -417.2C50.2 -422.1 100.5 -427 128.9 -396.8C157.4 -366.5 164 -301.1 200 -275.3C236 -249.4 301.4 -263.1 334.2 -242.8C367.1 -222.5 367.4 -168.2 375.8 -122.1C384.2 -76 400.7 -38 417.2 0L0 0Z" fill="#0e2c3d"></path><path d="M0 -347.7C41.9 -351.8 83.7 -355.9 107.4 -330.7C131.1 -305.5 136.7 -251 166.7 -229.4C196.7 -207.9 251.2 -219.3 278.5 -202.4C305.9 -185.4 306.2 -140.2 313.2 -101.8C320.2 -63.3 333.9 -31.7 347.7 0L0 0Z" fill="#163e51"></path><path d="M0 -278.1C33.5 -281.4 67 -284.7 86 -264.5C104.9 -244.4 109.3 -200.8 133.3 -183.5C157.3 -166.3 200.9 -175.4 222.8 -161.9C244.7 -148.4 244.9 -112.2 250.5 -81.4C256.1 -50.6 267.1 -25.3 278.1 0L0 0Z" fill="#1f5265"></path><path d="M0 -208.6C25.1 -211.1 50.2 -213.5 64.5 -198.4C78.7 -183.3 82 -150.6 100 -137.6C118 -124.7 150.7 -131.6 167.1 -121.4C183.5 -111.3 183.7 -84.1 187.9 -61.1C192.1 -38 200.4 -19 208.6 0L0 0Z" fill="#286679"></path><path d="M0 -139.1C16.7 -140.7 33.5 -142.3 43 -132.3C52.5 -122.2 54.7 -100.4 66.7 -91.8C78.7 -83.1 100.5 -87.7 111.4 -80.9C122.4 -74.2 122.5 -56.1 125.3 -40.7C128.1 -25.3 133.6 -12.7 139.1 0L0 0Z" fill="#327b8c"></path><path d="M0 -69.5C8.4 -70.4 16.7 -71.2 21.5 -66.1C26.2 -61.1 27.3 -50.2 33.3 -45.9C39.3 -41.6 50.2 -43.9 55.7 -40.5C61.2 -37.1 61.2 -28 62.6 -20.4C64 -12.7 66.8 -6.3 69.5 0L0 0Z" fill="#378696"></path></g></svg>