<svg id="visual" viewBox="0 0 900 450" width="900" height="450" xmlns="http://www.w3.org/2000/svg" xmlns:xlink="http://www.w3.org/1999/xlink" version="1.1"><rect x="0" y="0" width="900" height="450" fill="#001220"></rect><defs><linearGradient id="grad1_0" x1="50%" y1="0%" x2="100%" y2="100%"><stop offset="10%" stop-color="#215971" stop-opacity="1"></stop><stop offset="90%" stop-color="#215971" stop-opacity="1"></stop></linearGradient></defs><defs><linearGradient id="grad1_1" x1="50%" y1="0%" x2="100%" y2="100%"><stop offset="10%" stop-color="#215971" stop-opacity="1"></stop><stop offset="90%" stop-color="#1d4e65" stop-opacity="1"></stop></linearGradient></defs><defs><linearGradient id="grad1_2" x1="50%" y1="0%" x2="100%" y2="100%"><stop offset="10%" stop-color="#184359" stop-opacity="1"></stop><stop offset="90%" stop-color="#1d4e65" stop-opacity="1"></stop></linearGradient></defs><defs><linearGradient id="grad1_3" x1="50%" y1="0%" x2="100%" y2="100%"><stop offset="10%" stop-color="#184359" stop-opacity="1"></stop><stop offset="90%" stop-color="#14394d" stop-opacity="1"></stop></linearGradient></defs><defs><linearGradient id="grad1_4" x1="50%" y1="0%" x2="100%" y2="100%"><stop offset="10%" stop-color="#0f2f41" stop-opacity="1"></stop><stop offset="90%" stop-color="#14394d" stop-opacity="1"></stop></linearGradient></defs><defs><linearGradient id="grad1_5" x1="50%" y1="0%" x2="100%" y2="100%"><stop offset="10%" stop-color="#0f2f41" stop-opacity="1"></stop><stop offset="90%" stop-color="#0b2536" stop-opacity="1"></stop></linearGradient></defs><defs><linearGradient id="grad1_6" x1="50%" y1="0%" x2="100%" y2="100%"><stop offset="10%" stop-color="#061c2b" stop-opacity="1"></stop><stop offset="90%" stop-color="#0b2536" stop-opacity="1"></stop></linearGradient></defs><defs><linearGradient id="grad1_7" x1="50%" y1="0%" x2="100%" y2="100%"><stop offset="10%" stop-color="#061c2b" stop-opacity="1"></stop><stop offset="90%" stop-color="#001220" stop-opacity="1"></stop></linearGradient></defs><defs><linearGradient id="grad2_0" x1="0%" y1="0%" x2="50%" y2="100%"><stop offset="10%" stop-color="#215971" stop-opacity="1"></stop><stop offset="90%" stop-color="#215971" stop-opacity="1"></stop></linearGradient></defs><defs><linearGradient id="grad2_1" x1="0%" y1="0%" x2="50%" y2="100%"><stop offset="10%" stop-color="#1d4e65" stop-opacity="1"></stop><stop offset="90%" stop-color="#215971" stop-opacity="1"></stop></linearGradient></defs><defs><linearGradient id="grad2_2" x1="0%" y1="0%" x2="50%" y2="100%"><stop offset="10%" stop-color="#1d4e65" stop-opacity="1"></stop><stop offset="90%" stop-color="#184359" stop-opacity="1"></stop></linearGradient></defs><defs><linearGradient id="grad2_3" x1="0%" y1="0%" x2="50%" y2="100%"><stop offset="10%" stop-color="#14394d" stop-opacity="1"></stop><stop offset="90%" stop-color="#184359" stop-opacity="1"></stop></linearGradient></defs><defs><linearGradient id="grad2_4" x1="0%" y1="0%" x2="50%" y2="100%"><stop offset="10%" stop-color="#14394d" stop-opacity="1"></stop><stop offset="90%" stop-color="#0f2f41" stop-opacity="1"></stop></linearGradient></defs><defs><linearGradient id="grad2_5" x1="0%" y1="0%" x2="50%" y2="100%"><stop offset="10%" stop-color="#0b2536" stop-opacity="1"></stop><stop offset="90%" stop-color="#0f2f41" stop-opacity="1"></stop></linearGradient></defs><defs><linearGradient id="grad2_6" x1="0%" y1="0%" x2="50%" y2="100%"><stop offset="10%" stop-color="#0b2536" stop-opacity="1"></stop><stop offset="90%" stop-color="#061c2b" stop-opacity="1"></stop></linearGradient></defs><defs><linearGradient id="grad2_7" x1="0%" y1="0%" x2="50%" y2="100%"><stop offset="10%" stop-color="#001220" stop-opacity="1"></stop><stop offset="90%" stop-color="#061c2b" stop-opacity="1"></stop></linearGradient></defs><g transform="translate(900, 0)"><path d="M0 405C-30.8 405.4 -61.5 405.7 -90.1 394.8C-118.7 384 -145.2 361.8 -161.4 335.2C-177.6 308.5 -183.5 277.2 -211.4 265C-239.2 252.9 -289 259.7 -297.1 236.9C-305.2 214.1 -271.5 161.6 -274.8 132.3C-278.1 103.1 -318.2 97.2 -346.1 79C-374 60.8 -389.5 30.4 -405 0L0 0Z" fill="#041725"></path><path d="M0 354.4C-26.9 354.7 -53.8 355 -78.9 345.5C-103.9 336 -127.1 316.6 -141.2 293.3C-155.4 269.9 -160.6 242.6 -184.9 231.9C-209.3 221.3 -252.9 227.3 -260 207.3C-267 187.3 -237.6 141.4 -240.4 115.8C-243.3 90.2 -278.5 85 -302.8 69.1C-327.2 53.2 -340.8 26.6 -354.4 0L0 0Z" fill="#082030"></path><path d="M0 303.8C-23.1 304 -46.1 304.3 -67.6 296.1C-89.1 288 -108.9 271.4 -121.1 251.4C-133.2 231.4 -137.6 207.9 -158.5 198.8C-179.4 189.6 -216.8 194.8 -222.8 177.7C-228.9 160.6 -203.6 121.2 -206.1 99.3C-208.5 77.3 -238.7 72.9 -259.6 59.2C-280.5 45.6 -292.1 22.8 -303.7 0L0 0Z" fill="#0d2a3c"></path><path d="M0 253.1C-19.2 253.4 -38.4 253.6 -56.3 246.8C-74.2 240 -90.8 226.2 -100.9 209.5C-111 192.8 -114.7 173.3 -132.1 165.7C-149.5 158 -180.6 162.3 -185.7 148.1C-190.7 133.8 -169.7 101 -171.7 82.7C-173.8 64.4 -198.9 60.7 -216.3 49.4C-233.7 38 -243.4 19 -253.1 0L0 0Z" fill="#123447"></path><path d="M0 202.5C-15.4 202.7 -30.8 202.9 -45.1 197.4C-59.4 192 -72.6 180.9 -80.7 167.6C-88.8 154.2 -91.8 138.6 -105.7 132.5C-119.6 126.4 -144.5 129.9 -148.5 118.5C-152.6 107.1 -135.8 80.8 -137.4 66.2C-139 51.6 -159.1 48.6 -173 39.5C-187 30.4 -194.7 15.2 -202.5 0L0 0Z" fill="#163e53"></path><path d="M0 151.9C-11.5 152 -23.1 152.1 -33.8 148.1C-44.5 144 -54.5 135.7 -60.5 125.7C-66.6 115.7 -68.8 104 -79.3 99.4C-89.7 94.8 -108.4 97.4 -111.4 88.8C-114.4 80.3 -101.8 60.6 -103 49.6C-104.3 38.7 -119.3 36.4 -129.8 29.6C-140.2 22.8 -146.1 11.4 -151.9 0L0 0Z" fill="#1b495f"></path><path d="M0 101.3C-7.7 101.3 -15.4 101.4 -22.5 98.7C-29.7 96 -36.3 90.5 -40.4 83.8C-44.4 77.1 -45.9 69.3 -52.8 66.3C-59.8 63.2 -72.3 64.9 -74.3 59.2C-76.3 53.5 -67.9 40.4 -68.7 33.1C-69.5 25.8 -79.6 24.3 -86.5 19.7C-93.5 15.2 -97.4 7.6 -101.2 0L0 0Z" fill="#1f536b"></path><path d="M0 50.6C-3.8 50.7 -7.7 50.7 -11.3 49.4C-14.8 48 -18.2 45.2 -20.2 41.9C-22.2 38.6 -22.9 34.7 -26.4 33.1C-29.9 31.6 -36.1 32.5 -37.1 29.6C-38.1 26.8 -33.9 20.2 -34.3 16.5C-34.8 12.9 -39.8 12.1 -43.3 9.9C-46.7 7.6 -48.7 3.8 -50.6 0L0 0Z" fill="#215971"></path></g><g transform="translate(0, 450)"><path d="M0 -405C20.3 -358.3 40.6 -311.7 71 -311C101.4 -310.3 141.9 -355.6 174 -361.3C206.1 -367 229.7 -333 234.4 -294C239.2 -254.9 225 -210.8 236.1 -188.3C247.3 -165.8 283.8 -164.8 317.1 -152.7C350.5 -140.6 380.7 -117.4 394.8 -90.1C409 -62.8 407 -31.4 405 0L0 0Z" fill="#041725"></path><path d="M0 -354.4C17.8 -313.5 35.5 -272.7 62.1 -272.1C88.7 -271.5 124.2 -311.2 152.2 -316.1C180.3 -321.1 201 -291.4 205.1 -257.2C209.3 -223.1 196.8 -184.5 206.6 -164.8C216.4 -145 248.3 -144.2 277.5 -133.6C306.7 -123.1 333.1 -102.8 345.5 -78.9C357.8 -55 356.1 -27.5 354.4 0L0 0Z" fill="#082030"></path><path d="M0 -303.7C15.2 -268.8 30.4 -233.8 53.2 -233.3C76 -232.7 106.4 -266.7 130.5 -271C154.6 -275.2 172.3 -249.8 175.8 -220.5C179.4 -191.2 168.7 -158.1 177.1 -141.2C185.5 -124.3 212.8 -123.6 237.9 -114.5C262.9 -105.5 285.5 -88.1 296.1 -67.6C306.7 -47.1 305.2 -23.6 303.8 0L0 0Z" fill="#0d2a3c"></path><path d="M0 -253.1C12.7 -224 25.4 -194.8 44.4 -194.4C63.4 -194 88.7 -222.3 108.7 -225.8C128.8 -229.3 143.6 -208.1 146.5 -183.7C149.5 -159.3 140.6 -131.8 147.6 -117.7C154.5 -103.6 177.4 -103 198.2 -95.5C219.1 -87.9 238 -73.4 246.8 -56.3C255.6 -39.3 254.4 -19.6 253.1 0L0 0Z" fill="#123447"></path><path d="M0 -202.5C10.1 -179.2 20.3 -155.8 35.5 -155.5C50.7 -155.2 71 -177.8 87 -180.6C103 -183.5 114.9 -166.5 117.2 -147C119.6 -127.5 112.5 -105.4 118.1 -94.1C123.6 -82.9 141.9 -82.4 158.6 -76.4C175.3 -70.3 190.4 -58.7 197.4 -45.1C204.5 -31.4 203.5 -15.7 202.5 0L0 0Z" fill="#163e53"></path><path d="M0 -151.9C7.6 -134.4 15.2 -116.9 26.6 -116.6C38 -116.4 53.2 -133.4 65.2 -135.5C77.3 -137.6 86.1 -124.9 87.9 -110.2C89.7 -95.6 84.4 -79.1 88.5 -70.6C92.7 -62.2 106.4 -61.8 118.9 -57.3C131.4 -52.7 142.8 -44 148.1 -33.8C153.4 -23.6 152.6 -11.8 151.9 0L0 0Z" fill="#1b495f"></path><path d="M0 -101.2C5.1 -89.6 10.1 -77.9 17.7 -77.8C25.3 -77.6 35.5 -88.9 43.5 -90.3C51.5 -91.7 57.4 -83.3 58.6 -73.5C59.8 -63.7 56.2 -52.7 59 -47.1C61.8 -41.4 70.9 -41.2 79.3 -38.2C87.6 -35.2 95.2 -29.4 98.7 -22.5C102.2 -15.7 101.7 -7.9 101.3 0L0 0Z" fill="#1f536b"></path><path d="M0 -50.6C2.5 -44.8 5.1 -39 8.9 -38.9C12.7 -38.8 17.7 -44.5 21.7 -45.2C25.8 -45.9 28.7 -41.6 29.3 -36.7C29.9 -31.9 28.1 -26.4 29.5 -23.5C30.9 -20.7 35.5 -20.6 39.6 -19.1C43.8 -17.6 47.6 -14.7 49.4 -11.3C51.1 -7.9 50.9 -3.9 50.6 0L0 0Z" fill="#215971"></path></g></svg>