<svg id="visual" viewBox="0 0 960 230" width="960" height="230" xmlns="http://www.w3.org/2000/svg" xmlns:xlink="http://www.w3.org/1999/xlink" version="1.1"><rect x="0" y="0" width="960" height="230" fill="#001220"></rect><defs><linearGradient id="grad1_0" x1="76%" y1="100%" x2="100%" y2="0%"><stop offset="-33.47826086956522%" stop-color="#215971" stop-opacity="1"></stop><stop offset="133.4782608695652%" stop-color="#215971" stop-opacity="1"></stop></linearGradient></defs><defs><linearGradient id="grad1_1" x1="76%" y1="100%" x2="100%" y2="0%"><stop offset="-33.47826086956522%" stop-color="#215971" stop-opacity="1"></stop><stop offset="133.4782608695652%" stop-color="#1d4e65" stop-opacity="1"></stop></linearGradient></defs><defs><linearGradient id="grad1_2" x1="76%" y1="100%" x2="100%" y2="0%"><stop offset="-33.47826086956522%" stop-color="#184359" stop-opacity="1"></stop><stop offset="133.4782608695652%" stop-color="#1d4e65" stop-opacity="1"></stop></linearGradient></defs><defs><linearGradient id="grad1_3" x1="76%" y1="100%" x2="100%" y2="0%"><stop offset="-33.47826086956522%" stop-color="#184359" stop-opacity="1"></stop><stop offset="133.4782608695652%" stop-color="#14394d" stop-opacity="1"></stop></linearGradient></defs><defs><linearGradient id="grad1_4" x1="76%" y1="100%" x2="100%" y2="0%"><stop offset="-33.47826086956522%" stop-color="#0f2f41" stop-opacity="1"></stop><stop offset="133.4782608695652%" stop-color="#14394d" stop-opacity="1"></stop></linearGradient></defs><defs><linearGradient id="grad1_5" x1="76%" y1="100%" x2="100%" y2="0%"><stop offset="-33.47826086956522%" stop-color="#0f2f41" stop-opacity="1"></stop><stop offset="133.4782608695652%" stop-color="#0b2536" stop-opacity="1"></stop></linearGradient></defs><defs><linearGradient id="grad1_6" x1="76%" y1="100%" x2="100%" y2="0%"><stop offset="-33.47826086956522%" stop-color="#061c2b" stop-opacity="1"></stop><stop offset="133.4782608695652%" stop-color="#0b2536" stop-opacity="1"></stop></linearGradient></defs><defs><linearGradient id="grad1_7" x1="76%" y1="100%" x2="100%" y2="0%"><stop offset="-33.47826086956522%" stop-color="#061c2b" stop-opacity="1"></stop><stop offset="133.4782608695652%" stop-color="#001220" stop-opacity="1"></stop></linearGradient></defs><defs><linearGradient id="grad2_0" x1="0%" y1="100%" x2="24%" y2="0%"><stop offset="-33.47826086956522%" stop-color="#215971" stop-opacity="1"></stop><stop offset="133.4782608695652%" stop-color="#215971" stop-opacity="1"></stop></linearGradient></defs><defs><linearGradient id="grad2_1" x1="0%" y1="100%" x2="24%" y2="0%"><stop offset="-33.47826086956522%" stop-color="#1d4e65" stop-opacity="1"></stop><stop offset="133.4782608695652%" stop-color="#215971" stop-opacity="1"></stop></linearGradient></defs><defs><linearGradient id="grad2_2" x1="0%" y1="100%" x2="24%" y2="0%"><stop offset="-33.47826086956522%" stop-color="#1d4e65" stop-opacity="1"></stop><stop offset="133.4782608695652%" stop-color="#184359" stop-opacity="1"></stop></linearGradient></defs><defs><linearGradient id="grad2_3" x1="0%" y1="100%" x2="24%" y2="0%"><stop offset="-33.47826086956522%" stop-color="#14394d" stop-opacity="1"></stop><stop offset="133.4782608695652%" stop-color="#184359" stop-opacity="1"></stop></linearGradient></defs><defs><linearGradient id="grad2_4" x1="0%" y1="100%" x2="24%" y2="0%"><stop offset="-33.47826086956522%" stop-color="#14394d" stop-opacity="1"></stop><stop offset="133.4782608695652%" stop-color="#0f2f41" stop-opacity="1"></stop></linearGradient></defs><defs><linearGradient id="grad2_5" x1="0%" y1="100%" x2="24%" y2="0%"><stop offset="-33.47826086956522%" stop-color="#0b2536" stop-opacity="1"></stop><stop offset="133.4782608695652%" stop-color="#0f2f41" stop-opacity="1"></stop></linearGradient></defs><defs><linearGradient id="grad2_6" x1="0%" y1="100%" x2="24%" y2="0%"><stop offset="-33.47826086956522%" stop-color="#0b2536" stop-opacity="1"></stop><stop offset="133.4782608695652%" stop-color="#061c2b" stop-opacity="1"></stop></linearGradient></defs><defs><linearGradient id="grad2_7" x1="0%" y1="100%" x2="24%" y2="0%"><stop offset="-33.47826086956522%" stop-color="#001220" stop-opacity="1"></stop><stop offset="133.4782608695652%" stop-color="#061c2b" stop-opacity="1"></stop></linearGradient></defs><g transform="translate(960, 230)"><path d="M-230 0C-203.9 -12.5 -177.8 -25.1 -168.7 -38.5C-159.5 -51.9 -167.3 -66.2 -169.4 -81.6C-171.5 -96.9 -167.9 -113.3 -163.4 -130.3C-158.9 -147.3 -153.3 -164.9 -142.8 -179C-132.2 -193.2 -116.7 -203.8 -99.8 -207.2C-82.9 -210.7 -64.7 -207 -47.8 -209.6C-31 -212.2 -15.5 -221.1 0 -230L0 0Z" fill="#041725"></path><path d="M-201.2 0C-178.4 -11 -155.6 -21.9 -147.6 -33.7C-139.6 -45.4 -146.4 -57.9 -148.2 -71.4C-150.1 -84.8 -147 -99.1 -143 -114C-139 -128.9 -134.2 -144.3 -124.9 -156.7C-115.7 -169 -102.1 -178.3 -87.3 -181.3C-72.5 -184.4 -56.6 -181.1 -41.9 -183.4C-27.1 -185.7 -13.6 -193.5 0 -201.2L0 0Z" fill="#082030"></path><path d="M-172.5 0C-152.9 -9.4 -133.4 -18.8 -126.5 -28.9C-119.6 -38.9 -125.5 -49.7 -127 -61.2C-128.6 -72.7 -126 -85 -122.6 -97.7C-119.1 -110.5 -115 -123.7 -107.1 -134.3C-99.2 -144.9 -87.5 -152.8 -74.8 -155.4C-62.2 -158 -48.5 -155.3 -35.9 -157.2C-23.2 -159.2 -11.6 -165.8 0 -172.5L0 0Z" fill="#0d2a3c"></path><path d="M-143.7 0C-127.4 -7.8 -111.1 -15.7 -105.4 -24.1C-99.7 -32.4 -104.5 -41.4 -105.9 -51C-107.2 -60.6 -105 -70.8 -102.1 -81.4C-99.3 -92.1 -95.8 -103.1 -89.2 -111.9C-82.6 -120.7 -72.9 -127.3 -62.4 -129.5C-51.8 -131.7 -40.4 -129.4 -29.9 -131C-19.4 -132.6 -9.7 -138.2 0 -143.7L0 0Z" fill="#123447"></path><path d="M-115 0C-102 -6.3 -88.9 -12.5 -84.3 -19.2C-79.8 -26 -83.6 -33.1 -84.7 -40.8C-85.7 -48.5 -84 -56.7 -81.7 -65.2C-79.4 -73.7 -76.7 -82.5 -71.4 -89.5C-66.1 -96.6 -58.3 -101.9 -49.9 -103.6C-41.5 -105.3 -32.3 -103.5 -23.9 -104.8C-15.5 -106.1 -7.7 -110.6 0 -115L0 0Z" fill="#163e53"></path><path d="M-86.2 0C-76.5 -4.7 -66.7 -9.4 -63.2 -14.4C-59.8 -19.5 -62.7 -24.8 -63.5 -30.6C-64.3 -36.3 -63 -42.5 -61.3 -48.9C-59.6 -55.2 -57.5 -61.8 -53.5 -67.1C-49.6 -72.4 -43.8 -76.4 -37.4 -77.7C-31.1 -79 -24.3 -77.6 -17.9 -78.6C-11.6 -79.6 -5.8 -82.9 0 -86.2L0 0Z" fill="#1b495f"></path><path d="M-57.5 0C-51 -3.1 -44.5 -6.3 -42.2 -9.6C-39.9 -13 -41.8 -16.6 -42.3 -20.4C-42.9 -24.2 -42 -28.3 -40.9 -32.6C-39.7 -36.8 -38.3 -41.2 -35.7 -44.8C-33.1 -48.3 -29.2 -50.9 -24.9 -51.8C-20.7 -52.7 -16.2 -51.8 -12 -52.4C-7.7 -53.1 -3.9 -55.3 0 -57.5L0 0Z" fill="#1f536b"></path><path d="M-28.7 0C-25.5 -1.6 -22.2 -3.1 -21.1 -4.8C-19.9 -6.5 -20.9 -8.3 -21.2 -10.2C-21.4 -12.1 -21 -14.2 -20.4 -16.3C-19.9 -18.4 -19.2 -20.6 -17.8 -22.4C-16.5 -24.1 -14.6 -25.5 -12.5 -25.9C-10.4 -26.3 -8.1 -25.9 -6 -26.2C-3.9 -26.5 -1.9 -27.6 0 -28.7L0 0Z" fill="#215971"></path></g><g transform="translate(0, 0)"><path d="M230 0C222.8 16.1 215.6 32.2 212.5 48.5C209.4 64.9 210.4 81.5 207.2 99.8C204 118.1 196.6 138 176.7 140.9C156.8 143.8 124.5 129.5 110.4 138.4C96.3 147.2 100.4 179.1 92 191C83.6 202.9 62.6 194.7 45.2 197.9C27.7 201.1 13.9 215.5 0 230L0 0Z" fill="#041725"></path><path d="M201.3 0C195 14.1 188.7 28.1 186 42.4C183.3 56.8 184.1 71.3 181.3 87.3C178.5 103.3 172 120.8 154.6 123.3C137.2 125.8 108.9 113.4 96.6 121.1C84.2 128.8 87.8 156.7 80.5 167.1C73.1 177.5 54.8 170.4 39.5 173.2C24.3 175.9 12.1 188.6 0 201.3L0 0Z" fill="#082030"></path><path d="M172.5 0C167.1 12.1 161.7 24.1 159.4 36.4C157.1 48.6 157.8 61.1 155.4 74.8C153 88.6 147.4 103.5 132.5 105.7C117.6 107.8 93.3 97.2 82.8 103.8C72.2 110.4 75.3 134.3 69 143.3C62.7 152.2 46.9 146.1 33.9 148.4C20.8 150.8 10.4 161.7 0 172.5L0 0Z" fill="#0d2a3c"></path><path d="M143.8 0C139.3 10 134.8 20.1 132.8 30.3C130.9 40.5 131.5 50.9 129.5 62.4C127.5 73.8 122.9 86.3 110.4 88.1C98 89.9 77.8 81 69 86.5C60.2 92 62.7 112 57.5 119.4C52.2 126.8 39.1 121.7 28.2 123.7C17.3 125.7 8.7 134.7 0 143.8L0 0Z" fill="#123447"></path><path d="M115 0C111.4 8 107.8 16.1 106.3 24.3C104.7 32.4 105.2 40.7 103.6 49.9C102 59 98.3 69 88.3 70.5C78.4 71.9 62.2 64.8 55.2 69.2C48.1 73.6 50.2 89.6 46 95.5C41.8 101.4 31.3 97.4 22.6 99C13.9 100.5 6.9 107.8 0 115L0 0Z" fill="#163e53"></path><path d="M86.3 0C83.6 6 80.9 12.1 79.7 18.2C78.5 24.3 78.9 30.6 77.7 37.4C76.5 44.3 73.7 51.8 66.3 52.8C58.8 53.9 46.7 48.6 41.4 51.9C36.1 55.2 37.6 67.2 34.5 71.6C31.3 76.1 23.5 73 16.9 74.2C10.4 75.4 5.2 80.8 0 86.3L0 0Z" fill="#1b495f"></path><path d="M57.5 0C55.7 4 53.9 8 53.1 12.1C52.4 16.2 52.6 20.4 51.8 24.9C51 29.5 49.1 34.5 44.2 35.2C39.2 35.9 31.1 32.4 27.6 34.6C24.1 36.8 25.1 44.8 23 47.8C20.9 50.7 15.6 48.7 11.3 49.5C6.9 50.3 3.5 53.9 0 57.5L0 0Z" fill="#1f536b"></path><path d="M28.8 0C27.9 2 27 4 26.6 6.1C26.2 8.1 26.3 10.2 25.9 12.5C25.5 14.8 24.6 17.3 22.1 17.6C19.6 18 15.6 16.2 13.8 17.3C12 18.4 12.5 22.4 11.5 23.9C10.4 25.4 7.8 24.3 5.6 24.7C3.5 25.1 1.7 26.9 0 28.8L0 0Z" fill="#215971"></path></g></svg>